:SAMPLES-PER-SECOND 30
:FRAME-RANGE 1-668
:FULLY-SPECIFIED
:DEGREES
293
root  4.72081 39.8556 32.0571 -172.867 5.94365 179.409
RightUpLeg  -6.58058 -7.30434 -4.46094
RightLeg  11.7742 -8.41728 -0.609063
RightFoot  -9.92634 -0.153582 6.96139
RightToes  5.38607e-012 1.2921e-014 -6.02303e-014
Spine  -10.2151 -3.39681 0.915835
Spine1  15.2572 -2.69236 -2.9135
HEad  0.939163 -29.6788 15.0357
LeftShoulder1  2.17814 -4.09708 -23.4311
LeftArm  -4.62128 7.45327 -33.1793
LeftForeArm  34.0728 -1.25305 -11.0638
LeftHand  -0.0498702 3.65387 1.96007
RightShoulder  1.66965 3.98132 16.2747
RightArm  -10.3345 24.9863 9.93236
RightForeArm  68.8074 35.0372 4.21308
RightHand  0.0435195 -5.67584 -21.3326
LeftUpLeg  -15.8253 2.15802 5.20622
LeftLeg  13.496 15.7221 5.07022
LeftFoot  -3.4577 0.389736 -5.35336
LeftToes  -6.11857e-011 5.00151e-011 -2.22593e-011
294
root  4.33755 39.7905 31.8694 -172.601 5.11494 179.786
RightUpLeg  -6.44438 -7.38871 -4.63724
RightLeg  11.8096 -9.01571 -0.793748
RightFoot  -10.0732 -0.155225 7.82091
RightToes  5.38607e-012 1.2921e-014 -6.02303e-014
Spine  -10.3639 -3.35024 1.1519
Spine1  15.5318 -2.57077 -3.21092
HEad  0.998128 -29.9721 14.6368
LeftShoulder1  2.08869 -3.73047 -23.7058
LeftArm  -3.7892 7.85886 -31.5227
LeftForeArm  33.3746 -1.77429 -11.2907
LeftHand  -0.0485653 3.59389 2.09037
RightShoulder  1.62729 3.89353 15.9336
RightArm  -8.17488 22.4365 8.3898
RightForeArm  69.4712 36.5343 4.54116
RightHand  0.109682 -6.06971 -20.4675
LeftUpLeg  -16.2454 1.8753 5.16669
LeftLeg  14.0645 15.9471 5.24424
LeftFoot  -2.81375 0.507069 -6.57124
LeftToes  -6.11857e-011 5.00151e-011 -2.22593e-011
295
root  3.91876 39.7412 31.6471 -172.531 4.72192 -179.95
RightUpLeg  -6.04967 -7.37234 -4.95927
RightLeg  11.6636 -9.29881 -1.07938
RightFoot  -10.1078 -0.162681 8.70391
RightToes  5.38607e-012 1.2921e-014 -6.02303e-014
Spine  -10.3693 -3.31715 0.8343
Spine1  15.6641 -2.50224 -3.25967
HEad  1.68927 -30.1877 13.8873
LeftShoulder1  1.96356 -3.31199 -23.6895
LeftArm  -3.42196 8.70747 -30.368
LeftForeArm  33.0637 -2.12432 -11.3373
LeftHand  -0.0485028 3.58244 2.05549
RightShoulder  1.61439 3.92443 15.6326
RightArm  -5.60622 20.8907 7.24075
RightForeArm  69.0873 36.567 4.56259
RightHand  0.0886016 -5.93111 -21.0279
LeftUpLeg  -16.3673 1.82381 4.83761
LeftLeg  14.5207 15.4187 5.1903
LeftFoot  -2.86346 0.498714 -6.49335
LeftToes  -6.11857e-011 5.00151e-011 -2.22593e-011
296
root  3.47645 39.6855 31.4314 -172.498 4.45354 -179.875
RightUpLeg  -5.96597 -7.62015 -5.48038
RightLeg  12.1046 -9.2288 -1.51494
RightFoot  -10.209 -0.166011 9.74065
RightToes  5.38607e-012 1.2921e-014 -6.02303e-014
Spine  -10.2059 -3.39465 0.106244
Spine1  15.6764 -2.51273 -3.33736
HEad  2.45754 -30.4159 13.6337
LeftShoulder1  1.84471 -2.94584 -23.5156
LeftArm  -3.46352 9.6946 -29.3436
LeftForeArm  32.9417 -2.30969 -11.2593
LeftHand  -0.0483605 3.68186 2.06587
RightShoulder  1.61331 3.95123 15.5263
RightArm  -3.18421 20.0152 6.80133
RightForeArm  68.6758 36.2995 4.51354
RightHand  0.0993612 -5.9771 -21.4149
LeftUpLeg  -16.693 2.18515 4.26171
LeftLeg  15.4938 14.715 5.12331
LeftFoot  -3.26286 0.457143 -6.19365
LeftToes  -6.11857e-011 5.00151e-011 -2.22593e-011
297
root  3.02978 39.6086 31.2454 -172.326 4.16615 -179.928
RightUpLeg  -6.38016 -7.61025 -6.06491
RightLeg  13.1388 -9.35783 -2.19207
RightFoot  -10.456 -0.155202 10.8355
RightToes  5.38607e-012 1.2921e-014 -6.02303e-014
Spine  -10.0054 -3.54956 -0.80559
Spine1  15.5828 -2.5343 -3.67932
HEad  3.09629 -30.7375 13.7219
LeftShoulder1  1.8149 -2.84575 -23.5103
LeftArm  -2.71676 10.4006 -27.7838
LeftForeArm  31.9359 -2.28519 -11.4364
LeftHand  -0.0471016 3.65113 1.92409
RightShoulder  1.61267 3.86023 15.8241
RightArm  -1.42258 19.9904 7.08468
RightForeArm  68.3432 34.8986 4.19744
RightHand  0.217008 -6.55982 -22.2867
LeftUpLeg  -17.3316 2.65962 3.48278
LeftLeg  16.7737 13.8137 5.07435
LeftFoot  -4.24678 0.400287 -6.04357
LeftToes  -6.11857e-011 5.00151e-011 -2.22593e-011
298
root  2.57563 39.4726 31.0813 -172.177 4.29805 179.829
RightUpLeg  -7.37929 -7.17989 -6.9311
RightLeg  15.1999 -9.31911 -2.97766
RightFoot  -11.1338 -0.0982064 12.2678
RightToes  5.38607e-012 1.2921e-014 -6.02303e-014
Spine  -9.72809 -3.53051 -1.72257
Spine1  15.4645 -2.34636 -4.19236
HEad  3.52245 -30.9698 13.4442
LeftShoulder1  1.81558 -2.87251 -23.3872
LeftArm  -2.40121 10.7205 -26.6094
LeftForeArm  31.7113 -1.64306 -11.5335
LeftHand  -0.0439482 3.71265 1.74376
RightShoulder  1.63063 3.93805 15.8329
RightArm  -1.07202 19.9449 7.71951
RightForeArm  67.62 33.0443 3.80355
RightHand  0.279989 -6.79891 -23.511
LeftUpLeg  -18.2017 2.90502 2.45311
LeftLeg  18.6836 13.5406 5.4293
LeftFoot  -5.492 0.319192 -5.60095
LeftToes  -6.11857e-011 5.00151e-011 -2.22593e-011
299
root  2.14215 39.3572 30.9619 -172.071 4.62151 179.717
RightUpLeg  -9.25787 -5.43978 -7.70663
RightLeg  18.9082 -10.2458 -4.08498
RightFoot  -11.3742 -0.0736233 13.8717
RightToes  5.38607e-012 1.2921e-014 -6.02303e-014
Spine  -9.15416 -3.37956 -2.34521
Spine1  15.1109 -2.06016 -4.63641
HEad  3.42567 -31.1071 13.2382
LeftShoulder1  1.80663 -2.83934 -23.4007
LeftArm  -2.2779 10.5213 -25.2924
LeftForeArm  31.6347 -0.812797 -11.5404
LeftHand  -0.0390549 3.69799 1.37722
RightShoulder  1.64869 3.9732 15.9869
RightArm  -1.45794 20.0113 8.29909
RightForeArm  65.3612 31.4607 3.53697
RightHand  0.248184 -6.55619 -25.023
LeftUpLeg  -18.8871 3.30193 1.57028
LeftLeg  20.2228 13.4118 5.75518
LeftFoot  -6.57215 0.24944 -5.04212
LeftToes  -6.11857e-011 5.00151e-011 -2.22593e-011
300
root  1.76535 39.2742 30.8507 -172.182 4.84166 179.799
RightUpLeg  -11.4614 -3.90083 -8.12043
RightLeg  23.6336 -11.3411 -5.59166
RightFoot  -10.9981 -0.119786 14.8427
RightToes  5.38607e-012 1.2921e-014 -6.02303e-014
Spine  -8.47871 -3.25709 -2.85037
Spine1  14.8941 -1.84644 -4.97991
HEad  3.31834 -31.1704 12.9758
LeftShoulder1  1.79354 -2.81297 -23.3085
LeftArm  -2.1691 9.87462 -23.9977
LeftForeArm  31.0428 0.182152 -11.597
LeftHand  -0.03603 3.82516 1.20398
RightShoulder  1.68804 4.07775 16.2223
RightArm  -1.8444 20.3625 9.47294
RightForeArm  62.7472 29.7112 3.25954
RightHand  0.247013 -6.52157 -25.5811
LeftUpLeg  -19.2008 3.7448 0.987542
LeftLeg  21.4747 13.1399 5.96594
LeftFoot  -7.48602 0.197197 -4.52431
LeftToes  -6.11857e-011 5.00151e-011 -2.22593e-011
301
root  1.42455 39.2474 30.771 -172.323 4.95773 -179.862
RightUpLeg  -13.876 -3.63789 -7.93036
RightLeg  28.5244 -11.946 -7.16702
RightFoot  -10.1801 -0.197059 12.5456
RightToes  5.38607e-012 1.2921e-014 -6.02303e-014
Spine  -7.60203 -3.06847 -3.03836
Spine1  14.4039 -1.63725 -5.13518
HEad  3.66303 -31.3316 12.5268
LeftShoulder1  1.79946 -2.89814 -22.9844
LeftArm  -2.40881 9.02107 -23.1144
LeftForeArm  30.6433 1.29745 -11.5393
LeftHand  -0.0359805 3.83529 1.20413
RightShoulder  1.75305 4.21232 16.7243
RightArm  -2.40512 21.2351 10.9597
RightForeArm  59.5043 26.6798 2.75755
RightHand  0.186824 -6.22638 -26.2169
LeftUpLeg  -19.2818 3.85078 0.773111
LeftLeg  22.2485 13.1013 6.15857
LeftFoot  -8.07471 0.173718 -4.39344
LeftToes  -6.11857e-011 5.00151e-011 -2.22593e-011
302
root  1.15028 39.2527 30.6748 -172.446 4.5853 -179.507
RightUpLeg  -15.6988 -4.05922 -7.4856
RightLeg  32.0096 -11.6288 -7.96315
RightFoot  -9.92026 -0.175965 8.72674
RightToes  5.38607e-012 1.2921e-014 -6.02303e-014
Spine  -7.24195 -2.95169 -3.38302
Spine1  14.4427 -1.55215 -4.99215
HEad  3.96118 -31.8012 12.3432
LeftShoulder1  1.79836 -3.0129 -22.4084
LeftArm  -3.03284 7.93567 -22.6681
LeftForeArm  30.3378 2.08524 -11.3532
LeftHand  -0.0364969 3.91837 1.0816
RightShoulder  1.79764 4.16358 17.5412
RightArm  -3.38662 22.1275 12.2035
RightForeArm  56.8981 23.7187 2.51153
RightHand  0.111551 -5.88789 -26.5794
LeftUpLeg  -19.1679 3.78088 0.693447
LeftLeg  22.5042 12.8553 6.12269
LeftFoot  -8.43439 0.15378 -4.06672
LeftToes  -6.11857e-011 5.00151e-011 -2.22593e-011
303
root  0.943748 39.2467 30.5714 -172.563 3.8793 -179.288
RightUpLeg  -16.6426 -3.91947 -7.29463
RightLeg  33.13 -9.1453 -6.60774
RightFoot  -10.9569 -0.103628 8.64772
RightToes  5.38607e-012 1.2921e-014 -6.02303e-014
Spine  -7.02377 -2.96046 -4.07783
Spine1  14.4704 -1.62373 -4.72932
HEad  4.36917 -32.5833 12.1931
LeftShoulder1  1.75643 -2.91042 -22.19
LeftArm  -3.13913 6.33388 -21.8486
LeftForeArm  29.3462 2.46623 -11.3788
LeftHand  -0.0356587 3.94681 1.0693
RightShoulder  1.8245 4.03669 18.3888
RightArm  -8.60856 22.9245 13.5819
RightForeArm  59.2314 20.2748 3.98154
RightHand  0.086116 -5.76268 -27.3813
LeftUpLeg  -19.0568 3.51568 0.592469
LeftLeg  22.6824 12.5033 6.02361
LeftFoot  -8.75179 0.137729 -3.7711
LeftToes  -6.11857e-011 5.00151e-011 -2.22593e-011
304
root  0.782488 39.259 30.4663 -172.498 3.03546 -178.921
RightUpLeg  -17.2232 -3.31423 -6.91925
RightLeg  32.3786 -6.10298 -4.39048
RightFoot  -11.7542 -0.0472691 9.06168
RightToes  5.38607e-012 1.2921e-014 -6.02303e-014
Spine  -6.71804 -2.95913 -4.48041
Spine1  13.9476 -1.70303 -4.44521
HEad  4.96273 -33.5005 11.9656
LeftShoulder1  1.75054 -2.98736 -21.7234
LeftArm  -3.40977 5.30283 -21.4855
LeftForeArm  28.8619 2.21845 -11.3256
LeftHand  -0.0349578 3.8903 1.14246
RightShoulder  1.90413 4.10494 19.3073
RightArm  -16.6846 23.1722 15.0167
RightForeArm  64.6738 16.5389 5.61077
RightHand  0.123169 -5.90155 -28.0518
LeftUpLeg  -19.0856 3.49134 0.699798
LeftLeg  22.7047 11.8196 5.73438
LeftFoot  -8.98606 0.123375 -3.37958
LeftToes  -6.11857e-011 5.00151e-011 -2.22593e-011
305
root  0.631555 39.2896 30.346 -172.393 2.03299 -178.59
RightUpLeg  -17.3216 -2.63378 -6.67506
RightLeg  30.1125 -3.35106 -2.32745
RightFoot  -11.9221 -0.0310673 9.85953
RightToes  5.38607e-012 1.2921e-014 -6.02303e-014
Spine  -6.67398 -2.95917 -4.63572
Spine1  13.6816 -1.75557 -4.18368
HEad  5.11998 -34.6005 12.0163
LeftShoulder1  1.73332 -3.01163 -21.3192
LeftArm  -3.90561 3.99367 -21.4276
LeftForeArm  28.7322 1.74126 -11.202
LeftHand  -0.0369945 3.77197 1.25706
RightShoulder  1.95234 4.06818 20.1507
RightArm  -23.9971 23.4498 16.5699
RightForeArm  69.6648 12.6951 6.20295
RightHand  0.23324 -6.2909 -29.5951
LeftUpLeg  -18.975 3.21347 0.79165
LeftLeg  22.3472 11.3292 5.45504
LeftFoot  -9.08373 0.111444 -2.89014
LeftToes  -6.11857e-011 5.00151e-011 -2.22593e-011
